<?xml version="1.0" standalone="no"?>
<!DOCTYPE svg PUBLIC "-//W3C//DTD SVG 20010904//EN"
 "http://www.w3.org/TR/2001/REC-SVG-20010904/DTD/svg10.dtd">
<svg version="1.0" xmlns="http://www.w3.org/2000/svg"
 width="512.000000pt" height="512.000000pt" viewBox="0 0 512.000000 512.000000"
 preserveAspectRatio="xMidYMid meet">
<metadata>
Created by potrace 1.14, written by Peter Selinger 2001-2017
</metadata>
<g transform="translate(0.000000,512.000000) scale(0.100000,-0.100000)"
fill="#000000" stroke="none">
<path d="M1361 5105 c-139 -31 -273 -117 -352 -225 -40 -55 -44 -58 -96 -63
-77 -8 -174 -57 -242 -122 -180 -171 -183 -455 -7 -630 49 -50 159 -115 192
-115 17 0 19 -38 76 -1726 l51 -1530 -56 -95 -57 -95 0 -221 0 -221 26 -31 26
-31 1333 0 1333 0 26 31 26 31 0 220 0 221 -50 92 c-41 76 -50 101 -50 143 l0
50 248 4 c239 4 250 5 327 32 185 64 316 176 404 346 79 152 75 92 79 1060 2
616 0 888 -8 945 -32 221 -167 413 -362 515 -125 66 -200 80 -416 80 l-185 0
7 38 c3 20 6 59 6 85 0 37 4 49 18 53 9 3 49 21 89 40 166 81 264 271 236 455
-23 147 -114 269 -251 336 -60 30 -86 37 -153 41 l-80 5 -29 42 c-43 62 -144
152 -209 184 -95 48 -166 65 -276 65 -157 0 -297 -54 -401 -155 l-41 -41 -52
26 c-152 77 -342 75 -493 -6 l-59 -31 -47 46 c-61 59 -150 113 -231 138 -87
26 -219 33 -300 14z m262 -225 c66 -25 155 -101 193 -166 33 -56 59 -74 106
-74 31 0 47 9 98 55 37 32 84 62 116 75 107 39 236 18 320 -54 96 -81 147 -75
217 27 165 239 524 210 656 -52 44 -86 59 -93 169 -85 86 6 94 5 147 -21 178
-87 175 -325 -5 -421 -34 -18 -87 -19 -1380 -19 l-1345 0 -40 22 c-104 56
-154 169 -121 276 33 108 118 167 242 167 87 0 109 14 155 101 49 92 150 167
253 189 60 13 154 4 219 -20z m1801 -1052 c-5 -102 -94 -2972 -94 -3029 l0
-29 -1070 0 -1070 0 0 35 c0 47 -98 2927 -103 3038 l-4 87 1173 0 1173 0 -5
-102z m678 -310 c125 -59 211 -153 260 -284 l23 -59 3 -850 c2 -595 -1 -870
-8 -917 -33 -195 -187 -357 -378 -397 -29 -6 -143 -11 -252 -11 l-200 0 0 105
0 105 198 0 c228 0 264 8 336 71 24 22 55 61 68 87 l23 47 0 865 c0 861 0 865
-21 911 -26 55 -77 108 -130 135 -33 16 -65 19 -221 22 l-183 3 0 52 c0 29 3
76 7 105 l6 54 196 -4 196 -3 77 -37z m-156 -392 c18 -14 19 -36 22 -834 2
-817 2 -819 -19 -845 l-20 -27 -185 0 c-141 0 -184 3 -184 13 0 6 11 361 25
787 14 426 25 808 25 848 l0 72 158 0 c121 0 163 -3 178 -14z m-547 -2620 c30
-52 31 -57 31 -180 l0 -126 -1175 0 -1175 0 0 125 0 125 35 55 36 55 1109 0
1109 0 30 -54z"/>
<path d="M1583 3568 c-17 -4 -41 -20 -52 -34 -21 -27 -21 -30 -21 -1206 l0
-1180 29 -28 c16 -16 40 -32 54 -35 34 -9 98 22 114 55 10 19 13 282 13 1190
0 1144 0 1166 -20 1198 -11 17 -21 32 -22 32 -2 0 -17 4 -33 8 -17 5 -44 5
-62 0z"/>
<path d="M2213 3568 c-17 -4 -41 -20 -52 -34 -21 -27 -21 -30 -21 -1206 l0
-1180 29 -28 c16 -16 40 -32 54 -35 34 -9 98 22 114 55 10 19 13 282 13 1190
0 1144 0 1166 -20 1198 -11 17 -21 32 -22 32 -2 0 -17 4 -33 8 -17 5 -44 5
-62 0z"/>
<path d="M2852 3568 c-21 -6 -40 -21 -52 -41 -19 -31 -20 -58 -20 -1197 0
-908 3 -1171 13 -1190 16 -33 80 -64 114 -55 14 3 38 19 54 35 l29 28 0 1181
0 1180 -22 26 c-28 32 -73 44 -116 33z"/>
</g>
</svg>
